<svg width="48" height="46" viewBox="0 0 48 46" fill="none" xmlns="http://www.w3.org/2000/svg">
<path d="M42.375 0.162109H5.625C2.5184 0.162109 0 2.55856 0 5.51474V40.4853C0 43.4414 2.5184 45.8379 5.625 45.8379H42.375C45.4816 45.8379 48 43.4414 48 40.4853V5.51474C48 2.55856 45.4816 0.162109 42.375 0.162109Z" fill="black"/>
<path d="M33.366 9.08316H38.328L27.4875 20.8732L40.2405 36.9168H30.255L22.434 27.1865L13.485 36.9168H8.52004L20.115 24.306L7.88104 9.08316H18.12L25.1895 17.9771L33.366 9.08316ZM31.6245 34.0907H34.374L16.626 11.7609H13.6755L31.6245 34.0907Z" fill="white"/>
</svg>
